<?xml version="1.0" standalone="no"?>
<!DOCTYPE svg PUBLIC "-//W3C//DTD SVG 20010904//EN"
 "http://www.w3.org/TR/2001/REC-SVG-20010904/DTD/svg10.dtd">
<svg version="1.0" xmlns="http://www.w3.org/2000/svg"
 width="666.000000pt" height="666.000000pt" viewBox="0 0 666.000000 666.000000"
 preserveAspectRatio="xMidYMid meet">
<metadata>
Created by potrace 1.14, written by Peter Selinger 2001-2017
</metadata>
<g transform="translate(0.000000,666.000000) scale(0.100000,-0.100000)"
fill="#000000" stroke="none">
<path d="M3125 6654 c-211 -21 -278 -29 -395 -50 -537 -98 -1049 -332 -1490
-682 -128 -102 -396 -372 -505 -507 -395 -494 -626 -1044 -711 -1691 -22 -163
-25 -589 -5 -749 79 -655 317 -1229 719 -1735 102 -128 372 -396 507 -505 494
-395 1044 -626 1691 -711 163 -22 589 -25 749 -5 655 79 1229 317 1735 719
128 102 396 372 505 507 395 494 626 1044 711 1691 22 163 25 589 5 749 -79
655 -317 1229 -719 1735 -102 128 -372 396 -507 505 -493 394 -1051 629 -1686
710 -117 15 -517 28 -604 19z m-970 -1479 c113 -24 209 -77 296 -164 l75 -76
264 -520 c267 -528 320 -623 418 -753 61 -82 75 -92 128 -92 30 0 44 7 75 40
82 86 201 287 365 615 317 632 373 733 439 801 213 217 585 216 805 -4 231
-231 226 -577 -10 -813 l-77 -76 -529 -266 c-517 -259 -678 -351 -786 -447
-44 -38 -48 -45 -48 -87 0 -40 5 -50 38 -81 94 -89 283 -197 805 -459 l531
-266 76 -76 c87 -88 123 -149 150 -257 53 -205 0 -395 -150 -544 -87 -87 -147
-122 -256 -150 -205 -53 -394 0 -550 155 l-81 80 -263 520 c-271 536 -304 594
-402 729 -82 113 -131 139 -188 99 -34 -24 -49 -42 -129 -159 -81 -117 -175
-293 -441 -823 -185 -370 -194 -386 -258 -450 -328 -326 -872 -164 -968 289
-30 144 2 296 91 430 82 124 114 144 683 429 486 244 628 323 764 427 108 84
100 140 -35 240 -125 92 -208 140 -528 299 -624 312 -758 385 -825 450 -65 64
-110 141 -140 241 -25 82 -25 249 0 324 69 206 227 350 431 394 91 19 144 19
230 1z"/>
</g>
</svg>
