<svg xmlns="http://www.w3.org/2000/svg" fill="none" viewBox="0 0 457 401"><path fill="url(#a)" d="M0 0h457v400H0z" transform="translate(0 .594)"/><path fill="#010101" d="M169.728 310.39h5.605v19.957h9.825v4.68h-15.43V310.39ZM194.065 310.39v24.632h-5.605V310.39h5.605ZM199.085 329.287c1.502.768 3.814 1.537 6.195 1.537 2.566 0 3.922-1.06 3.922-2.666 0-1.606-1.171-2.413-4.141-3.473-4.103-1.425-6.781-3.692-6.781-7.272 0-4.203 3.517-7.418 9.346-7.418 2.786 0 4.839.583 6.303 1.245l-1.244 4.494a11.778 11.778 0 0 0-5.171-1.167c-2.419 0-3.59 1.094-3.59 2.374 0 1.571 1.391 2.266 4.581 3.473 4.361 1.609 6.414 3.872 6.414 7.345 0 4.13-3.19 7.637-9.97 7.637-2.82 0-5.606-.73-7.001-1.498l1.137-4.607v-.004ZM218.695 310.72c1.464-.292 4.434-.511 7.22-.511 3.409 0 5.497.331 7.293 1.387 1.722.914 2.97 2.597 2.97 4.825s-1.283 4.241-4.068 5.263v.073c2.82.768 4.912 2.889 4.912 6.066 0 2.228-1.025 3.984-2.566 5.224-1.795 1.426-4.8 2.233-9.712 2.233-2.751 0-4.8-.185-6.049-.365V310.72Zm5.532 9.431h1.834c2.932 0 4.508-1.206 4.508-3.035 0-1.828-1.43-2.85-3.957-2.85-1.21 0-1.907.073-2.381.146v5.739h-.004Zm0 10.926c.551.073 1.21.073 2.161.073 2.532 0 4.766-.949 4.766-3.546s-2.234-3.473-5.02-3.473h-1.907v6.946ZM263.447 322.453c0 8.075-4.912 12.973-12.132 12.973s-11.619-5.521-11.619-12.536c0-7.383 4.727-12.9 12.02-12.9 7.292 0 11.727 5.667 11.727 12.467l.004-.004Zm-17.849.33c0 4.825 2.273 8.225 6.01 8.225 3.737 0 5.937-3.58 5.937-8.371 0-4.422-2.127-8.225-5.976-8.225s-5.975 3.58-5.975 8.371h.004ZM272.281 328.703l-1.761 6.323h-5.79l7.551-24.632h7.332l7.663 24.632h-6.01l-1.907-6.323h-7.078Zm6.264-4.169-1.541-5.224c-.439-1.464-.878-3.288-1.244-4.752h-.073c-.366 1.459-.732 3.327-1.137 4.752l-1.464 5.224h5.459ZM154.561 343.475c.982-.197 2.971-.343 4.835-.343 2.282 0 3.681.219 4.882.931 1.154.614 1.989 1.739 1.989 3.229 0 1.489-.857 2.837-2.721 3.524v.052c1.89.511 3.285 1.932 3.285 4.061 0 1.494-.685 2.666-1.718 3.499-1.201.953-3.216 1.493-6.501 1.493-1.842 0-3.216-.12-4.051-.244V343.475Zm3.707 6.315h1.227c1.963 0 3.018-.807 3.018-2.03 0-1.224-.956-1.906-2.652-1.906-.81 0-1.275.047-1.597.098v3.842l.004-.004Zm0 7.315c.37.048.809.048 1.446.048 1.692 0 3.19-.636 3.19-2.374 0-1.739-1.498-2.327-3.362-2.327h-1.278v4.649l.004.004ZM180.569 355.903c0 1.567.047 2.838.099 3.843h-3.238l-.172-1.687h-.073c-.465.734-1.598 1.957-3.754 1.957-2.428 0-4.219-1.515-4.219-5.212v-7.023h3.754v6.435c0 1.739.564 2.791 1.864 2.791 1.029 0 1.619-.709 1.864-1.297.099-.219.12-.511.12-.807v-7.117h3.755v8.122-.005ZM183.535 356.492c.689.416 2.109.905 3.216.905 1.106 0 1.597-.39 1.597-1.004s-.37-.906-1.765-1.37c-2.48-.832-3.436-2.176-3.41-3.597 0-2.228 1.912-3.915 4.882-3.915 1.399 0 2.652.317 3.388.682l-.663 2.567c-.538-.291-1.571-.682-2.6-.682-.908 0-1.425.365-1.425.979 0 .562.465.854 1.937 1.369 2.282.781 3.238 1.932 3.264 3.696 0 2.224-1.765 3.864-5.201 3.864-1.571 0-2.966-.343-3.875-.833l.663-2.666-.008.005ZM198.056 344.454c0 1.026-.783 1.859-2.01 1.859-1.227 0-1.964-.833-1.938-1.859-.026-1.077.762-1.884 1.963-1.884 1.202 0 1.964.807 1.989 1.884h-.004Zm-3.853 15.292v-11.965h3.728v11.965h-3.728ZM200.923 351.598a76.04 76.04 0 0 0-.099-3.817h3.238l.172 1.64h.073c.491-.76 1.718-1.906 3.707-1.906 2.454 0 4.292 1.614 4.292 5.139v7.096h-3.728v-6.628c0-1.541-.543-2.593-1.89-2.593-1.029 0-1.645.708-1.89 1.395-.099.219-.146.588-.146.932v6.898h-3.729V351.598ZM218.17 354.95c.12 1.542 1.644 2.276 3.384 2.276 1.274 0 2.307-.172 3.31-.49l.491 2.52c-1.227.49-2.725.734-4.344.734-4.072 0-6.402-2.348-6.402-6.091 0-3.035 1.89-6.384 6.062-6.384 3.875 0 5.347 3.009 5.347 5.972 0 .635-.073 1.197-.12 1.468h-7.728v-.005Zm4.391-2.545c0-.906-.392-2.421-2.109-2.421-1.572 0-2.209 1.421-2.308 2.421h4.417ZM228.227 356.492c.688.416 2.109.905 3.216.905 1.106 0 1.597-.39 1.597-1.004s-.37-.906-1.765-1.37c-2.48-.832-3.436-2.176-3.41-3.597 0-2.228 1.912-3.915 4.882-3.915 1.399 0 2.652.317 3.388.682l-.663 2.567c-.538-.291-1.571-.682-2.6-.682-.908 0-1.425.365-1.425.979 0 .562.465.854 1.937 1.369 2.282.781 3.238 1.932 3.264 3.696 0 2.224-1.766 3.864-5.201 3.864-1.571 0-2.966-.343-3.875-.833l.663-2.666-.008.005ZM238.873 356.492c.689.416 2.11.905 3.216.905 1.107 0 1.597-.39 1.597-1.004s-.37-.906-1.765-1.37c-2.479-.832-3.435-2.176-3.409-3.597 0-2.228 1.911-3.915 4.882-3.915 1.399 0 2.652.317 3.388.682l-.663 2.567c-.538-.291-1.572-.682-2.6-.682-.909 0-1.425.365-1.425.979 0 .562.464.854 1.937 1.369 2.282.781 3.237 1.932 3.263 3.696 0 2.224-1.765 3.864-5.2 3.864-1.572 0-2.967-.343-3.875-.833l.663-2.666-.009.005ZM266.766 359.282c-.684.343-2.234.708-4.245.708-5.717 0-8.662-3.546-8.662-8.247 0-5.628 4.026-8.757 9.028-8.757 1.938 0 3.41.391 4.073.734l-.762 2.958a8.107 8.107 0 0 0-3.138-.61c-2.967 0-5.274 1.786-5.274 5.456 0 3.302 1.963 5.384 5.299 5.384 1.128 0 2.381-.245 3.117-.541l.564 2.911v.004ZM269.022 342.376h3.729v17.37h-3.729v-17.37ZM287.078 355.903c0 1.567.047 2.838.099 3.843h-3.237l-.173-1.687h-.073c-.465.734-1.597 1.957-3.754 1.957-2.428 0-4.219-1.515-4.219-5.212v-7.023h3.754v6.435c0 1.739.564 2.791 1.864 2.791 1.029 0 1.619-.709 1.864-1.297.1-.219.121-.511.121-.807v-7.117h3.754v8.122-.005ZM289.971 359.746c.052-.782.099-2.228.099-3.572v-13.798h3.728v6.826h.048c.71-1.026 1.963-1.687 3.629-1.687 2.872 0 4.981 2.374 4.955 6.045 0 4.305-2.746 6.456-5.497 6.456-1.4 0-2.747-.515-3.608-1.932h-.047l-.147 1.666h-3.164l.004-.004Zm3.827-5.087c0 .244.026.463.074.661.245 1.004 1.102 1.76 2.182 1.76 1.598 0 2.575-1.224 2.575-3.375 0-1.858-.835-3.327-2.575-3.327-1.007 0-1.937.76-2.182 1.838a2.893 2.893 0 0 0-.074.682v1.761ZM147.6 121.479v.666c.133.137.198.399.465.335.266-.271.133-.67.133-1.001h-.598ZM149.92 108.12l-.715-.816c-1.7.794.056.623.715.816ZM144.866 119.414l-.207.67c.336.335.874.665 1.339.266v-.133c0-.536-.598-.871-1.132-.798v-.005ZM147.729 107.437c.064-.326-.065-.601-.332-.802-.671-1.061.603-1.662.668-2.529l-.668-.996c-2.208-.601-.331 1.923-1.601 2.73.736.331 1.063 1.795 1.933 1.602v-.005Z"/><path fill="#010101" d="M162.508 101.775c.749 1.721-2.475 1.751-1.623 3.73-.267.395-.865.597-.671 1.125 1.072.872.671 2.267 1.472 3.203v.463c-1.339.593-2.208-.931-3.405-1.266-1.602-.799-2.476-3.336-4.004-4.465 1.33-1.859-1.735-1.069-1.27-2.734-1.464-1.395-2.605-4.328-5.274-4.328-.133-.79-1.735-1.725-.469-2.528-.194-.4-.599-.33-.999-.33-1.072.33.202 1.193-.465 1.725-.93 1.005 1.404 2.533-.801 2.597 0 1.271 2.071 0 2.269 1.606 1.137-.069.934 1.528 2.08 1.593 1.123.201.258 2.069 1.73 1.927.599.803 1.933.67 1.933 1.872-1.868.803.999 1.794-.603 2.726-.538.601-1.799-1.134-1.937.335.34.931 2.54.532 1.275 1.931.271.327.667.529 1.136.46.534-.326.134-1.46.934-1.262 1.671 1.992 3.397 4.258 5.808 5.259-.198.927.934 1.322.598 2.395.47.537 1.003 1.005 1.8.798.603.468 1.072 1.267 1.072 2.065-1.873.734-1.675-1.266-3.341-1.133-.4-.464-.331-1.193-.331-1.863-.603-.532-1.206.133-1.74.459v.468c-.4.069-.736-.39-.998.138-.069.798.073 1.794.998 1.927.736-.202 1.068.464 1.938 0 .133.202.404.404.271.665-1.882-.459-2.209 3.941-3.81.936-.668 0-1.206.46-1.464.996l.465.936c-1.403.46-2.273 2.056-2.674 3.323-.193.738.336 1.133.272 1.794-1.266 1.194-3.802 2.396-3.208 4.328-.594 1.27 1.537.931.999 2.404.207.596.34 1.588-.327 1.725-.865-1.064-1.877-1.927-1.937-3.528-.999-.601-2.601-.799-3.668-.468l-.134.798c-1.601.202-3.134-1.79-4.537-.129-.336.4-.93.4-1.275.932.065 2.129-1.735 4.855.47 6.517a2.301 2.301 0 0 0 2.6.669c.473-.133 1.068-.399 1.27-.931v-.996l2.876-.129c-.138 1.322-1.003 2.464-1.141 3.791 1.003 1.129 3.009-.198 3.874 1.129.199 1.601-1.27 3.863.672 4.666 1.533.996 1.602-2.06 2.872-.339.327.408.731.734 1.265.67 1.068-.468.47-1.73 1.606-1.936.999 0 2.067-1.396 2.872-.327.93-.927 1.666.601 2.609.67.925-.339 2.195 1.266 2.531-.202 1.602-.326 1.937.992 2.742 1.932 1.202-.464 1.468 1.331 2.532 1.597 2.208.532 5.282.867 6.277 3.662.206.725-1.197 1.198-.327 1.794 3.065-1 4.473 2.46 7.211 1.726 1.537.206 2.273 2.4 4.004 2.061.335 1.202.133 2.61-.47 3.533-1.063 1.597-4.473 2.331-3.198 4.795-1.469 1.73-2.403 3.653-3.875 5.461-.663.862-2.006.193-2.88.592-1.331.798-3.797 1.339-3.53 3.533-.199 1.262-2.011.665-1.934 2.061-2.273.798-3.009 4.456-5.743 3.194-.934.802.534 1.931-.671 2.601-1.072 1.395-3.401.198-4.137 2.19-.336.467-1.602-.267-1.275.798l.327.326c-1.532.477-1.326 2.67-3.061 2.735-.137.738.93 1.133.465 1.726-.869 1.004-2.144 1.67-2.406 3.069-.198.271-.603.537-.465.927.331.67 1.27.606 1.136 1.473-1.067 1.923-2.337.395-3.405-.472-.672-1.722-.801-3.855.194-5.319-.259-1.34 2.144-2.731 1.274-4.267 1.003-1.267.469-2.799 1.27-4.199.934-1.52 2.273-3.19 1.937-5.383 1.266-1.932 1.469-4.203 2.261-6.255.878-2.335-.728-3.533-2.261-4.8-.74-.605-2.337-1.06-1.937-2.399-1.141-1.863-1.532-4.057-3.336-5.452-1.275-1.61 2.195-1.743.331-3.203.202-.734-.331-2.194 1.068-2.065 1.537-1.399 1.799-2.928 1.601-4.795-.598-.395-.335-1.395-1.265-1.395-.47.399-.603 1.395-1.408 1.266-1.671-.867-3.935-2.005-4.344-4.001-1.33-1.79-4.202-.661-5.003-3.056-1.601.601-3.805-.198-5.403-1.134-1.274-.399-2.677-.867-3.405-2.198.598-1.992-1.408-3.662-2.071-5.456-.331-.266-.598-.867-1.132-.798.129 1.197.392 2.73 1.132 3.863-.202.125-.331.399-.598.326-1.942-.729-.87-3.056-2.945-3.73.069-.464.543-.803.34-1.395-1.804-.67-.34-2.331-1.606-3.392l-.796.661c-.934-.399-.207-1.459-.607-2.065-2.402-3.923 1.472-6.924 1.743-10.582-1.343-.399-.675-1.463-.137-2.198.137-.463-.272-.665-.538-.996l-.595.533c-1.201-.408-.133-1.331.138-1.799l.194-2.863c-.801-2.267-3.143-.4-4.538-.932-1.067.064-1.606.932-2.204 1.734-.538.271-1.003.331-1.606.134-.667-.666.271-1.533.603-2.194 3.268-3.134 6.738-6.397 10.281-9.123.671-.27.869.734 1.472.795 1.602-.129 3.005 1.661 4.469.334 1.339-.395 3.341.872 3.801-.463-.46-.395-1.928-.533-1.257-1.464.732-.532 1.399-1.863 2.398-1.125.87 1.056 1.937 1.657 2.742 2.855 0 .403-.064.798.328 1 .413-.064 1.007-.262 1.141-.798 0-1.065-1.671-1.331-.801-2.598.727-1.193 1.408.344 2.402-.266.267.069.065.537.461.468l.473-.468c-.869-1-2.402-.536-3.341-1.335-.869-.064-1.399.537-2.135.799-.34-.395-1.007-.868-1.601-1.065-.142-.927.869-.987 1.33-1.46 1.007.473.805-1.137 1.739-.798l.801.927c.865-.395-.405-1.189.465-1.395.603 0 1.132.927 1.601.129-.469-.597-.598-1.456.336-1.726.465.065.861-.133 1.137-.464 1.937-.073 3 .065 4.602-.197l-.263-.803 1.404.202c3.887 2.902 7.646 6.302 11.52 9.303a256.335 256.335 0 0 0-9.122-8.054c-4.047-3.417-8.12-3.996-9.342-3.996-1.468 0-3.78.339-7.595 3.254-9.518 7.237-25.577 21.614-35.974 35.609-7.03 9.471-11.511 19.379-11.511 26.715 0 28.175 35.672 65.661 55.08 65.661 11.055 0 53.409-31.498 53.409-65.661 0-17.588-19.489-39.164-34.561-53.172l-.018.013Zm-9.635 35.348c.194-.065.336.202.465.33.065.271-.193.335-.331.473-.465 0-.332-.601-.134-.803Zm-.667 6.392c-.133-.266-.603-.399-.469-.798.396 0 1.601-.271 1.601.532-.193.468-.731.193-1.132.266Zm4.805 0c-.732-.399-1.675-.266-2.403-.798l.801-.803c-.603-.799-1.472.335-2.2-.266-1.201-.928-2.807-.799-3.87-1.924-.809-.472-1.339.589-2.273.451-.263-.528.396-.794.801-1.129 1.536-.528 2.199.936 3.543.674 1.997.799 3.926 1.923 6.268 1.923.327.799 1.739.142 1.606 1.271-.732.271-1.666 0-2.273.597v.004Zm4.008 0c-.465.137-.801-.069-1.132-.459.193-.537 1.265-.67 1.601-.138 0 .271-.271.4-.469.597Zm-65.697-1.266c-.598-.194-.8-1.061-.47-1.597.47-.335.935 0 1.275.335.267.661-.396 1.064-.8 1.262h-.005Zm4.206 28.427c-.598-.137-1.403-.197-1.601-.927.267-.738 1.403-.738 2.066-.459.409.528-.069 1.06-.465 1.391v-.005Zm55.085 36.623c-2.136.996-3.406 3.92-5.946 3.061.737-1.27 2.67-.94 3.07-2.601 1.33.266 1.533-2.13 2.876-.799v.339Zm2.398-8.796c-.405-.137-.405-.798 0-.931.4.073.93-.198 1.136.27-.331.266-.529.936-1.136.665v-.004Zm2.876 6.865h-.47v-.468h.801c.065.27 0 .536-.327.468h-.004Zm7.202-4.796c-.258.133-.396-.133-.594-.334-.065-.464.594-.331.801-.134 0 .134 0 .4-.203.468h-.004Z"/><path fill="#010101" d="M142.451 108.897c-.061.537.202 1.198-.328 1.597.93.142.065 1.867 1.464 1.399.267 1.464 1.938 2.065 3.212 1.795.594.077.796.94.456 1.408.405.395.469 1.331 1.27 1.129.138-1.06-.529-1.932.138-3.061-1.602-1.404-.202-3.469-1.068-5.259-.607 0-.869.67-1.334.996-.866-.133-1.399-.863-1.735-1.592-.934.261-1.206 1.06-2.075 1.592v-.004ZM144.995 103.303c-.336-1.133-1.739-1.992-1.403-3.194l-.801.601c.46 1.065.732 2.465 2.2 2.593h.004ZM140.991 97.181v-.459h-.607c-.198.46.34.524.607.46ZM143.394 95.782l-.599.936h.934c.323-.275.129-.936-.335-.936ZM140.522 103.303c-.138.193-.667.193-.465.597.263.601.934.068 1.27-.133-.138-.464-.331-.593-.801-.464h-.004ZM236.531 123.008c-1.33-.799-1.132 1.133-1.739 1.739-.332.596-.129 1.528.469 1.725.396 0 .866.133 1.137-.129 1.795-1.468 3.663.859 5.476-.141-.405-1.391-1.868-2.061-3.074-2.391-.934 1.193-1.666-.142-2.269-.803Z"/><path fill="#010101" d="M259.534 154.011c-.065-3.554-.495-7.182-1.214-10.822-.142.253-.302.498-.431.73-1.136.596-1.799 2.399-3.397 1.923-1.274 1.738-4.008 2-5.945 3.202-.405-.137-.736.138-1.068.331 0 .67.465 1.258 1.068 1.593 1.601-.726 3.534-.859 5.132-1.46.275 2.327-1.4 4.259-2.398 6.251-2.403 1.472-4.138 3.803-6.075 5.735-.267.459-.138 1.056-.138 1.593-.327-.129-.465.137-.667.334.934.799-.538 1.992.667 2.726.061 1.662.599 3.791-.529 5.397a26.018 26.018 0 0 0-4.137 3.198c.12.992 1.003 2.322 0 3.189-1.339.468-2.144 1.602-2.274 3.061-1.795 2.799-4.408 5.525-8.011 4.929-.672.536-1.404-.198-1.735-.606.465-2.455-2.213-4.387-2.54-6.916-.13-3.464-4.474-6.993-.801-10.187-.995-1.932.206-4.387-2.273-5.46.077-1.533-2.734-2.864-1.262-4.594-.336-.798 1.404-2.005-.336-1.927-.667-.807-2.6-.331-2.742-1.799-.796-.464-2.135-.331-3.001-.137-2.006 3-4.537-1.134-6.746 1.129-1.799-.661-4.068-2.061-4.469-3.988-.805-1.065-2.475-1.198-2.273-2.735-.064-2.464 1.933-4.465 1.464-7.319 2.011-1.799 2.807-4.856 5.61-5.461.865-1.928 2.669-3.529 4.468-4.658-.064-.27.539-.399.341-.803-.341-.596-.935-.463-1.464-.463-1.473-2.001 1.464-3.121 1.123-5.126 1.408-.863 4.146 1.326 4.943-1.262 1.205-1.803-2.532-1.872-.461-2.997.999.065 1.864-.665 2.402-1.331-.262-.601-.93-.206-1.468-.27-.193.734-1.063 1.009-1.73.601.06-.798 1.666-.738 1.132-1.932-.999-.399-3.005 2.4-2.734-.266.728-.996 1.8-1.927 3.065-2.129-1.063-1.464 1.137-1.404 1.404-2.396.4.138.865.4 1.003.795-1.137 1.202.736 3.331-.332 4.666.065.262.134.468.332.665.603-.266 1.27-.596 1.606-1.33.396-1.469 3.328-.799 2.191-2.997.202-1 2.015-.597 1.477-1.794-.797-.202-1.206 1.395-1.942.33-.258-1-.194-1.799 0-2.863 1.279-.872 2.674-1.868 3.207-3.327.336-.67 1.339-1.009.935-1.936 1.128-.859 2.213-2.396 4.012-1.795.456 2.138 2.932 1.194 4.004 2.726.271-.262.129-1.129.801-.798.206.335.267.734.667 1.004-.133-2.597 3.875.46 2.066-2.266-.06-.404.065-1.061.672-.799 2.351 3.679 4.675 7.328 6.85 11.029-4.077-7.783-8.477-14.463-11.956-19.005-3.048-3.971-4.83-5.834-6.948-5.838-2.153-.01-3.914 2.365-7.659 7.675-9.665 13.708-23.954 41.543-23.954 57.92 0 37.13 25.039 65.614 31.613 65.614 8.498 0 30.381-33.524 30.85-64.6-.008-.34-.034-.679-.034-1.014 0-.309.026-.626.039-.94Zm-21.858-55.09c.151-.108.353.158.78.699.43.541 1.037 1.369.977 1.816-.065.446-.543.159-.702.446-.159.288-.159.636.129.794.289.159.543.541.289.7-.254.159-1.18-.412-1.468-.571-.289-.159-.095-1.275-.16-1.846-.064-.571-.159-1.816.16-2.035l-.005-.004Zm-3.668-3.435c.831-.065 1.757.129 1.787.399.03.27-.938.142-1.49.206-.551.065-1.317.477-1.476.189-.134-.236.353-.73 1.179-.794Zm-3.702.382c.443 0 .508.54.508 1.416 0 .876-.349 1.447-.508 1.417-.469-.094-1.089-.953-1.167-1.4-.077-.446.724-1.433 1.167-1.433Zm-11.904 10.595c.68-.764 1.077.313 1.158.704.086.391.306.691-.546 1.116-.853.425-2.364 1.593-2.441.983-.082-.614 1.145-2.035 1.829-2.799v-.004Zm33.619 67.82c-1.644 1.588-1.554 5.052-4.903 4.778-1.296-.717-.564-1.919-.978-3.19 3.268-1.129-.404-4.521 3.591-4.787 1.55-.064 3.672-4.533 4.24-1.142-.404 1.533-1.545 2.795-1.95 4.341Z"/><path fill="#010101" d="M236.062 107.631c-.138-.464-.736-.129-.93-.464l-.336.665c.47.404.866-.128 1.27-.197l-.004-.004ZM240.268 137.187c-.336 0-.598.065-.801.34l1.4 1.923c.271 1.468 2.273 2.395 1.803 3.992 1.537 1.331 1.938 3.598 4.009 4.327.193-1.592-1.008-2.592-1.469-3.859-2.075-.927-1.338-3.391-3.34-4.331-.603-.799-.801-1.73-1.602-2.396v.004ZM226.914 116.088c1.003.729 1.536-.597 2.608-.134.409-.326.534-.734.801-1.137-.469-1.464 1.464-1.322 1.132-2.529h-.335c-.93-.669-.93-2.46-.668-3.395-1.003.197-1.067 1.27-1.136 2.129 1.929.867-.801 1.666-.129 2.661h.456c.211.142.211.335.211.541-1.206-.334-1.937 1.404-3.07 1.597.065.065.194.133.13.267ZM249.541 135.462c-.663 1 1.206 1.996 1.942 2.726.336.94 1.274 1.665 2.402 1.605.267-.468.93-.738.93-1.335-1.261-.326-2.325-1.138-3.53-1.606-.538-.459-.74-1.661-1.744-1.39ZM239.734 131.001c-.064-.476-.667-.931-1.063-.536-.736.669.529.468.263 1.137-.134.271-.401.271-.599.464-1.003 0-.796-1.065-.796-1.601-.409.137-.943-.194-1.141.339-.271 0-.667.129-.801-.138-2.135.932-1.464-2.73-3.203-3.061-.934.593.456 1.001.672 1.46.064.266-.211.412-.336.605-1.206-.399-.271 1.396-1.477.996-.994-.266-.667-1.468-.796-2.06-1.201-.606-.129-2.593-1.602-3.065-1.334.266-1.141-1.404-2.066-1.73l-.47.463c1.064.927 2.002 2.194 3.208 2.864-.271.467-1.27.334-1.008 1.137-.533.666-.8 1.928-1.601 2.061-.663-.065-1.266-.541-1.606-1.138.607-.459 1.606-.403 2.144-.592.465-1.726-1.339-1.533-2.144-2.404-.801-3.121-2.458-.726-4.266-1.001-.409 1.469-2.269 1.606-2.936 3.074-.401.133-.465.198-.603.597-.668.996-1.727 1.464-2.872 1.464v.798c2.674-.068 5.007-1.996 7.681-1.27.93-.468 1.804-.468 2.733 0-.731.596 0 1.27-.671 1.931-.258.597.465.597.671.932 2.14-.335 2.743 2.46 4.814 1.927v-1.468c1.601-1.189 2.535.936 4.137.67 1.537 1.468 3.336-.133 5.136.137.194-1.008.93-1.794.603-3l-.005.008ZM247.613 127.004c.137.468-.332 1.602.469 2.061.865.331 1.601 1.4 2.6.932v-.327c-.198-1.197-1.265-1.803-1.606-2.867.065-.065.138-.202.272-.138v-.326c-1.068-.468-1.473-1.468-2.536-2.065-.271-.936 1.063-.798.938-1.597-.469-.601-1.407-.197-2.075-.335-.198.271-.93.666-.598 1.271.801 1.262 1.464 2.194 2.536 3.391ZM256.89 139.793c.203.065.405-.206.34-.339-.279-.399-1.209-1.266-1.605-.463.193.463.736.867 1.265.802ZM326.488 96.366c-5.515-4.306-8.688-6.882-12.567-6.908-3.69-.025-5.489 1.224-10.81 5.126-16.162 11.862-42.764 39.358-43.577 59.423.004.313.017.631.017.944 0 .335-.017.674-.022 1.009.762 30.841 36.099 64.647 54.392 64.647 12.967 0 53.9-29.479 53.9-65.66 0-18.172-25.017-45.806-41.333-58.581Zm13.509 80.428c.289.176.19.699 0 .734-.194.03-.383-.193-.478-.365-.094-.176-.095-.717.478-.365v-.004Zm-8.95-67.923c.727.339 3.069 2.292 3.663 2.799.594.511 3.914 4.203 4.426 4.709.512.511.852 1.061.512 1.232-.34.172-1.872-.171-2.299-.51-.426-.34-1.532-1.615-1.575-2.207-.043-.592 0-1.103-.551-1.275-.551-.172-1.873-.193-2.256-.416-.383-.224-.68-.73-.383-.902.297-.172.297-.635-.173-.974-.469-.34-2.01-1.215-2.083-1.782-.078-.584-.009-1.017.719-.678v.004Zm6.875 72.314c1.085 1.112.702 1.018.478 1.112-.224.095-.943-.463-1.085-.669-.232-.335-.478-1.559.607-.447v.004Zm-.805-15.081c-.181-.03-.284-.596-.181-.794.168-.322.543-.571.797-.446.254.128.34.605.155.828-.186.223-.586.447-.771.412Zm-.469 7.388c-.026.155-.289.129-.366 0-.078-.128 0-.266.181-.313.18-.047.18.313.18.313h.005Zm-1.933-2.374c-.026.155-.289.129-.366 0-.078-.128 0-.266.181-.313.18-.047.18.313.18.313h.005Zm-1.709-56.477c-.354-.103.043-.425.297-.425s.426.635-.297.425Zm-7.741-6.448c.172.21-.043.511-.297.511-.271 0 .129-.722.297-.511Zm-9.067-3.353c.297 0 .383.296.512.425.13.129-.34.549-.68.425-.366-.137-.129-.85.172-.85h-.004Zm-2.213-.167c.173-.468 1.021-.043 1.279 0 .254.042.172.51 0 .678-.172.172-.723.339-.723.339-.427 0-.724-.55-.551-1.017h-.005Zm-39.103 54.992c-.173.678-.853.292-.853.292-.68-.206-1.02-.271-.766-1.086.254-.816.766-1.529.766-1.529s.594-.545.853 0c.258.546.172 1.649 0 2.327v-.004Zm20.225 7.281c-.469 0-.796-.528-1.274 0-.801.596-.202 2.198-1.602 2.138-2.811-2.598-4.266-5.993-7.008-8.53-.065-1.46 1.063.137 1.739-.125 1.192 1.06 2.402 1.928 3.069 3.323.465.133.801-.065 1.068-.46-1.266-1.532-2.071-3.533-3.341-5.258-.064-2.336.87-4.207 0-6.397-.856-.463-1.339.867-2.268.67.133-1.464.727-3.331-.806-4.529.203-.395-.193-.67-.46-.927-1.206.33-3.005-.065-3.337 1.601-1.877-.069-2.411 2.125-4.012 2.528-.93.932-3.001 1.4-2.402 3.396-.198 1.06-1.873 1-1.464 2.396-.607.326-.607 1.27-1.408 1.27-1.335-2.661-1.472-5.134-1.799-8.131-.207-.725 1.063-1.318.198-1.923-.806.605-1.537-.468-1.933-.798.266-.996-.409-1.4-.47-2.4l-.542-.326c-1.266 0-3.397.562-4.667-.163.934-2.997 2.872-6.294 4.004-9.157 6.707-12.364 17.474-20.417 26.675-27.329 2.406-1.867 4.645-3.954 7.646-4.761.533.528-.336 1 .198 1.464-2.601.601-4.611 3.13-6.605 4.795-.073.395.198.67.323.932 1.068-1.069 2.071-2.005 3.406-2.864 1.132.129 2.204.593 3-.601 1.873-.738 3.479-1.927 5.279-2.601.4-.266.602-.601.538-1.129-.198-.666-1.606-1.666-.198-2.202.732-.258.994.403 1.601.472-.146.794-1.141 1.601-.34 2.395 2.816.138-.801 2.731 1.614 3.061.793.266 1.929-.738 2.597.266-.065.533.129.867.464 1.138 1.141.06 2.067.133 2.411-1.138v-.468c.719.065-.206.408.328.67.331.202 1.003-.197 1.399.137.4.799 1.141.932 1.799 1.262.939-.459 1.8.202 2.536.67.202.193.202.46.469.67.805-.404 1.602-1.005 2.605-.537.336.799 1.27.666 1.937.327 1.404 1.803 5.27 1.137 4.943 3.996-.93.133-1.74-1.601-2.536-.335-.267 1.202 1.735.202 1.399 1.602-.598.399-1.735.798-1.735 1.798l.133.133c-.202.267-.465.404-.8.331-.336-.734-.935-.27-1.404-.133.271.932-.736 2.194.801 2.868-.594.596-.129 1.661-.801 2.189.271 1.404-.671 2.726-1.472 3.198v-.798c.267.133.336-.198.465-.275-.396-2.129-3.139-4.593-.93-6.388.138-.592-.396-1.064-.667-1.331-1.335 0-1.735 3.199-3.01 1.331-.994.593-1.735.069-2.932.138-.602.995-2.006 1.661-2.066 2.859.198 1 1.266.605 1.8 1.129.465.068.667-.524 1.265-.331.198 1 0 2.597 1.275 3.396-.198.936-1.275 1.468-.138 2.391-.065.408-.801.605-.663 1.073.465 1.125 2.135.46 2.062 1.795-.53.528-1.132 1.322-1.929.794-.538.811 1.003 2 0 2.996-.069 1.005.272 2.267-.607 2.731-.8.266-1.868.133-2.269 1-.869-.399-1.605.601-2.398.931-.137.335-.271.73-.611.932-.461-.468-1.266-1.065-1.132-1.867 1.132-1.726 3.672-1.202 4.606-2.928 1.473-.271 1.202-1.799 1.473-2.859-.271-.408-.736-.94-.332-1.4 1.331-.275.534-1.67.999-2.404-.598-.927-.198-2.258-.999-3.052-.8.262-.202 1.125-.602 1.601-.668 1.524-1.542 3.057-2.937 4.117-1.67-.794-1.808 1.537-3 2.134.327 1.064 1.192 2.069.594 3.335-.534.528-1.266.79-1.873 1.134-.732-.876.732-2.602-.671-3.203.202-.798-.862-1.532-1.598-.996l-.469.532c-.263-.532-.663-1.266-1.27-.798-.667-.133-1.33.665-.801 1.266.198.271.47.331.801.331.336-.726.874 0 1.408-.193l.331.33c-.538.863-1.601.932-2.269 1.73.995.597.737 1.73 1.464 2.4.405 3.121-2.269 5.589-4.473 7.526-1.27.266-2.402.798-3.668.798-1.136.464 0 1.194-.331 1.928-.538.334-.866 1.266-1.606 1.133a1.213 1.213 0 0 1-.465-.996c.465-.468.93-.871.93-1.601-.401-.464-1.266-.335-1.731-.138-.413.065-.667.541-1.007.807-.736 2.658 3.539 3.795 1.804 6.856-.801 1.79-2.812.859-3.406 2.731-.934-.271.065-1.065-.465-1.597-.934-.674-1.334-2.065-2.734-1.941-.34.537-1.347.807-.942 1.606.869 1.064.069 3.327 2.07 3.528 1.137 1.001.332 2.267 1.27 3.328-.193.399-.598.334-.934.334-.465.661.801.593.603 1.258h.331c-.473.541.194.936.465 1.327.207-.327.534-.116.801-.193.465.528 1.137 1.133 1.795.669-.064.193.138.528-.193.593l.021-.013Zm23.567 2.4c-1.068-1.065-2.67-1.804-4.013-1.396-.465-1.009-.865-2.266-1.928-2.739.322-.326-.879-1.459.525-1.124l.142 1c.93.064 2.734-.404 2.269 1.262 1.132 1.661 2.535-1.932 4.141 0 2.136.532 4.137 1.335 5.739 2.997-.138 1.133.801 2.004 1.601 2.601.405.064.93-.202 1.128.331-.391 1.592-1.73.463-2.729.463-.603-.661-.934-1.661-1.864-1.936-.543-.064-1.008 0-1.339.468-.073.468 0 1.395-.801 1.129-1.205.206-1.67-1.923-3.009-.931-.4-.198-.4-.73-.194-.996.396-.267.728-.73.332-1.134v.005Zm-2.549.695c-.168.15-.573-.356-.512-.524.064-.167.288-.232.512-.133.224.095.224.459 0 .661v-.004Zm-2.467.76c.047.249-.469.21-.469 0 0-.211.026-.369.237-.369s.198.163.236.369h-.004Zm-5.894.807c-.129-.189-1.149-.03-1.627 0s-.702.326-.702.609c0 .284-.353.838-.895.705-.543-.134-.065-1.117 0-1.404.064-.288.671-.588.925-.503.254.086 2.265-.012 2.683-.042.413-.031.701.193.925.253.224.064.383.026.512-.258.13-.283.573.035.607.258.031.223-.03.678-.288.674-.254 0-.637.124-.637.124-.353.224-.896.606-1.214.829-.319.223-.896-.129-.672-.412.224-.288.513-.636.383-.829v-.004Zm-3.504-4.521c-.168-.193-.594-.476-.431-.764.168-.287.457-.991.616-1.498.159-.507.19-1.279 1.18-.798.99.48.895.704 1.373.257.478-.446.512-.893 1.02-1.052.513-.158.702.129.478.318-.224.189-.796.511-1.02.794-.224.288-.409.477-.237.829s.276.674 0 .927c-.275.253-.818.442-.723.983.095.541.775 1.176.723 1.752-.034.382-.723-.189-.943-.511-.219-.322-.796-.829-1.02-.382-.224.446-.129 1.064-.573 1.137-.447.073-.482-.944-.417-1.313.064-.365.142-.494-.026-.683v.004Zm-1.124-9.101c-.353 0 0-.755.289-1.077.288-.322.637-.575.861-.575.224 0-.396.476-.452.828-.056.352-.693.829-.693.829l-.005-.005Zm5.455-11.9c.387.095.667.606.844.893.181.288.409.606.77.765.362.158.874.128.81.682-.065.558-.573.841-.431 1.129.142.288.525.7.844 1.37.319.669.353 1.433 0 1.781-.353.352-.702.764-1.055.829-.469.086-.452-.795-.943-1.177-.49-.382-.52-1.146-.49-1.433.03-.288-.272-1.112-.246-1.37.026-.253-.336-.764-.107-.953.228-.193.292.382.611.477.319.094.637.094.796-.065.16-.159.388-.476.211-.73-.176-.253-.576-.446-.762-.193-.185.254-.344.065-.374-.253-.03-.318-.448-.635-.702-.635-.254 0-.254.699-.732.828s-.512-.73-.512-1.017c0-.288.03-1.559-.254-1.593-.289-.03-.654.571-.68.953-.022.382-.28.635-.629.635s-.064-1.081.129-1.463c.194-.383.573-1.112.926-1.147.353-.03.702-.189.732-.446.03-.253.224-.636.671-.636.448 0 .625.224.681.67.056.447-.435.7-.461 1.146-.026.447-.034.859.353.953Zm0 11.424c-.03.129-.508.253-.508.253-.288 0-.413-.317-.189-.541.223-.223.473-.382.697-.287.228.094.03.446 0 .571v.004Zm1.085 10.105c-.19.048-.319-.304-.19-.463.13-.159.62-.159.711.223.082.356-.327.193-.517.24h-.004Zm.323-3.455c0-.352.637-1.434.895-1.434.259 0 .289.562.289 1.03 0 .468-.19 1.614-.513 1.709-.318.094-.671-.958-.671-1.305Zm1.627 2.356c.224-.03 1.115.031 1.115.254s-.671.463-.732.566c-.064.103-.831.374-1.055 0-.232-.39.448-.789.672-.82Zm11.34-37.915c.254.339-.594.764-.594.764-.254-.339.34-1.103.594-.764Zm-26.528 36.752c-.465-.601-1.068-1.133-.801-2.061.267-.742 1.136-.54 1.606-.33 1.399-1.468 3.405-2.061 4.602-3.799 1.076-.271 1.007 1.129 1.941 1.129.267.798-.736.669-.934 1.262.599 1.202-.469 2.133-.336 3.34-1.265.665-.8 1.992-1.928 2.726-1.206-1.129-3.875-.125-4.142-2.263l-.008-.004Zm25.271 33.846c-.551.171-1.021-1.275-1.055-1.623-.03-.352.224-.524.861-.532.637-.009 1.085.18 1.085.691 0 .511-.383 1.305-.896 1.464h.005Zm6.242-10.947c-.465 2.464-3.539 3.524-4.004 6.065-.598.73-1.67.391-2.199 1.263-1.072-1.464-2.274.193-3.539-.799-.866-.464-.065-2.464-1.74-1.73.405-.339-.133-.734-.331-.996-1.739 0-1.404-2.803-3.539-2.206-2.936-1.061-4.404 2.468-7.34 1.871-.736.597-1.602.67-2.407.799-1.27-1.468.465-3.005-1.136-4.263-1.008-2.001-2.136-4.259-1.266-6.585 1.266 0 2.071-1.4 3.47-1.13.598-1.339 1.666-.206 2.273-1.601.267-.463.069-1.404.801-1.404.671.202 1.067-.596 1.27-.996-.142-.596.594-.596.999-.798 1.067-.532 2.337 1.932 2.669-.266-.069-.666.934-1 .331-1.601a.378.378 0 0 1 .332-.194c.142.327.271.868.805.666.198-.198.198-.794.667-.666.801.464 1.869.868 2.872.464.534 1.262-.672 3.198 1.403 3.859.138.202.336.138.534.138.069-.666.801-.464 1.068-.138 1.735-1.335-.065-3.786 1.804-4.791.4.666.671 1.46.796 2.267 1.537 1.464.736 4.061 3.009 5.066.801 1.459 1.671 3.056 2.936 4.19-1.067.996.065 2.335-.538 3.524v-.008Zm1.163-14.734c-.095-.159 0-.326.224-.386.223-.06.223.386.223.386-.03.189-.353.159-.447 0Zm1.597-9.77c-.306.111-.19-.606-.637-.795-.448-.193-1.219-.158-1.585-.158-.366 0-.236-.636.147-.636s1.532-.129 1.821-.223c.288-.095.766-.571.861-.794.095-.224-.224-.606-.478-.7-.254-.094-.159-.541.207-.477.366.065 1.003.636 1.067.859.065.223.035.571-.335.794-.371.223-.685.7-.732 1.112-.048.412.017.893-.336 1.018Zm.637 5.336c.327-.408 1.085.614.926.901-.16.288-1.15-.622-.926-.901Zm8.619 27.157c-.534.669-1.468 2.069-2.402 1.404-.866.528-1.464 1.665-2.536 2.06-1.335.404-1.929 3.465-3.539 1.468.409-.931 1.61-2.009 2.747-2.271 1.33-.064 1.735-3.056 3.199-1.597.327 0 .538-.399.8-.596.142-.262-.129-.468-.327-.666.801-.403.939-1.464 1.27-2.202.129-.532-.198-.863-.275-1.327l.275-.27c1.399.335.465 2.533 2.135 2.404.47.859-.929.992-1.334 1.588l-.013.005Zm2.445-74.723c-.254 0-.641-.657-.512-.975.112-.274.172-.549.809-.21.637.339.935.721.853.932-.082.21-.896.253-1.15.253Zm5.916 58.045c-.173.043-.724 0-.724 0-.297-.425-.129-.764.34-.764.47 0 .551.721.384.764Zm.34-1.443c-.043-.339 0-.339.254-.296.254.043.551.425.254.511-.297.086-.513-.21-.513-.21l.005-.005Zm.31 2.421c-.099 0-.259-.764 0-.721.323.052.542.172.499.425-.043.254-.4.296-.499.296Zm1.179 0c-.254 0 .043-.549.172-.549.13 0 .087.549-.172.549Z"/><path fill="#010101" d="M258.496 141.386c-1.765-9.964-5.932-18.704-10.918-27.187 4.585 8.753 8.748 18.897 10.737 28.986.31-.554.543-1.159.177-1.803l.004.004ZM162.483 101.706c-.121-.09-.237-.193-.358-.283.129.12.254.236.383.352-.008-.026-.013-.043-.025-.069Z"/><path fill="#020202" d="M345.615 213.378c0-4.048 3.053-7.315 7.336-7.315 4.284 0 7.336 3.267 7.336 7.315s-3.078 7.315-7.336 7.315c-4.258 0-7.336-3.267-7.336-7.315Zm13.066 0c0-3.507-2.466-5.714-5.73-5.714-3.263 0-5.73 2.211-5.73 5.714 0 3.503 2.639 5.714 5.73 5.714 3.264 0 5.73-2.211 5.73-5.714Zm-5.174-4.276c2.217 0 3.198 1.215 3.198 2.739 0 1.189-.676 2.065-1.791 2.409l1.74 3.374h-2.161l-1.447-3.031h-1.287v3.031h-1.925v-8.517h3.677l-.004-.005Zm-.969 3.89c.809 0 2.071.038 2.071-1.112 0-1.258-1.262-1.163-2.174-1.163h-.663v2.275h.77-.004Z"/><path fill="#010101" d="M113.821 262.683h-6.195l-4.025-20.774h-.078l-4.064 20.774h-6.195l-6.35-30.042h5.963l3.599 21.159h.077l3.755-21.159h6.66l3.754 21.159h.077l3.909-21.159h5.963l-6.854 30.042h.004ZM148.323 247.666c0 7.568-3.832 15.484-12.429 15.484-8.597 0-12.429-7.916-12.429-15.484 0-7.569 3.832-15.485 12.429-15.485 8.597 0 12.429 7.916 12.429 15.485Zm-18.663 0c0 3.859 1.046 10.732 6.234 10.732s6.234-6.873 6.234-10.732c0-3.86-1.046-10.733-6.234-10.733s-6.234 6.873-6.234 10.733ZM165.363 232.645c6.931 0 9.643 4.941 9.643 8.766 0 3.28-2.053 6.332-5.11 7.569l6.001 13.707h-6.35l-5.42-12.471h-4.606v12.471h-6.04v-30.042h11.886-.004Zm-3.216 12.471c2.635 0 6.66.155 6.66-3.589 0-4.13-4.064-3.782-7.048-3.782h-2.247v7.375h2.635v-.004ZM186.622 257.587h12.545v5.096h-18.586v-30.042h6.041v24.946ZM211.092 232.645c11.46 0 15.529 6.487 15.529 15.021s-4.452 15.021-13.437 15.021h-9.449v-30.042h7.357Zm1.627 24.942c4.801 0 7.707-3.014 7.707-10.621 0-6.293-2.713-9.23-8.365-9.23h-2.286v19.847h2.944v.004ZM265.346 237.741h-7.823v24.942h-6.04v-24.942h-7.822v-5.096h21.685v5.096ZM281.184 232.645c6.932 0 9.644 4.941 9.644 8.766 0 3.28-2.054 6.332-5.11 7.569l6.001 13.707h-6.35l-5.42-12.471h-4.607v12.471h-6.04v-30.042h11.887-.005Zm-3.216 12.471c2.635 0 6.66.155 6.66-3.589 0-4.13-4.064-3.782-7.047-3.782h-2.247v7.375h2.634v-.004ZM319.169 262.683h-6.157l-1.976-7.53h-8.907l-1.976 7.53h-6.156l8.442-30.042h8.132l8.598 30.042Zm-12.507-24.865h-.155l-3.173 12.587h6.505l-3.177-12.587ZM329.897 232.645c11.46 0 15.529 6.487 15.529 15.021s-4.452 15.021-13.437 15.021h-9.449v-30.042h7.357Zm1.628 24.942c4.8 0 7.706-3.014 7.706-10.621 0-6.293-2.712-9.23-8.365-9.23h-2.286v19.847h2.945v.004ZM369.354 237.741h-12.7v7.182h10.53v5.095h-10.53v7.569h13.436v5.096h-19.476v-30.042h18.74v5.1ZM174.963 292.038c-.93 6.177-5.071 9.925-11.344 9.925-8.597 0-12.429-7.916-12.429-15.485 0-7.568 3.832-15.484 12.429-15.484 6.195 0 10.341 3.55 11.344 9.925l-5.73.773c-.581-3.126-1.976-5.946-5.614-5.946-5.188 0-6.234 6.873-6.234 10.732 0 3.86 1.046 10.733 6.234 10.733 3.599 0 5.033-2.821 5.614-5.908l5.73.735ZM198.896 276.558h-12.701v7.182h10.531v5.095h-10.531v7.569h13.437v5.095h-19.477v-30.041h18.741v5.1ZM213.804 271.458l9.024 19.807h.077v-19.807h6.041v30.041h-6.467l-11.383-24.13h-.077v24.13h-6.04v-30.041h8.83-.005ZM254.617 276.557h-7.822v24.942h-6.04v-24.942h-7.823v-5.096h21.685v5.096ZM277.31 276.558h-12.7v7.182h10.53v5.095h-10.53v7.569h13.436v5.095h-19.477v-30.041h18.741v5.1ZM295.279 271.458c6.932 0 9.644 4.941 9.644 8.766 0 3.284-2.054 6.332-5.11 7.568l6.001 13.707h-6.35l-5.42-12.471h-4.607v12.471h-6.04v-30.041h11.887-.005Zm-3.216 12.475c2.635 0 6.661.154 6.661-3.589 0-4.13-4.065-3.786-7.048-3.786h-2.247v7.375h2.634ZM136.406 69.608h-5.187l-1.662-6.345h-7.504l-1.662 6.345h-5.188l7.112-25.311h6.854l7.242 25.311h-.005Zm-10.539-20.95h-.129l-2.673 10.604h5.48l-2.673-10.604h-.005ZM165.018 44.297h8.352v25.311h-5.088V49.44h-.065l-4.697 20.168h-4.568l-4.697-20.168h-.064v20.168h-5.089V44.297h8.352l3.75 18.155h.065l3.749-18.155ZM193.204 48.59h-10.702v6.053h8.872v4.293h-8.872v6.375h11.322v4.293h-16.411V44.297h15.791v4.293ZM213.434 44.297h8.352v25.311h-5.089V49.44h-.064l-4.697 20.168h-4.568l-4.697-20.168h-.064v20.168h-5.089V44.297h8.352l3.75 18.155h.064l3.75-18.155ZM225.829 69.608V44.297h7.31c8.223 0 10.311 2.863 10.311 6.963 0 2.374-1.141 4.1-3.199 5.237 2.316 1.108 3.685 3.285 3.685 5.822 0 4.361-3.556 7.289-8.188 7.289h-9.919Zm5.088-15.03c3.75 0 7.311.421 7.311-3.056s-3.72-3.22-7.311-3.22v6.28-.004Zm3.298 11.029c1.533 0 4.503.193 4.503-3.645 0-3.447-2.871-3.902-7.796-3.546v7.191h3.293ZM263.249 48.59h-10.703v6.053h8.873v4.293h-8.873v6.375h11.323v4.293h-16.411V44.297h15.791v4.293ZM277.572 44.297c5.838 0 8.124 4.164 8.124 7.384 0 2.764-1.731 5.336-4.305 6.375l5.059 11.548h-5.352l-4.568-10.51h-3.883v10.51h-5.088V44.297h10.013Zm-2.708 10.509c2.218 0 5.61.129 5.61-3.027 0-3.481-3.427-3.19-5.937-3.19h-1.894v6.213h2.217l.004.004ZM320.701 56.953c0 6.374-3.228 13.046-10.474 13.046s-10.474-6.671-10.474-13.046c0-6.376 3.228-13.047 10.474-13.047s10.474 6.672 10.474 13.047Zm-15.726 0c0 3.253.882 9.045 5.252 9.045s5.252-5.792 5.252-9.046c0-3.254-.882-9.045-5.252-9.045s-5.252 5.791-5.252 9.046ZM340.014 48.59h-10.702v6.053h8.253v4.293h-8.253v10.672h-5.089V44.297h15.791v4.293Z"/><defs><linearGradient id="a" x1="457" x2="17" y1="7.406" y2="384.906" gradientUnits="userSpaceOnUse"><stop stop-color="#EDFAEF"/><stop offset="1" stop-color="#C9EDCD"/></linearGradient></defs></svg>